<svg width="1738" height="1055" viewBox="0 0 1738 1055" fill="none" xmlns="http://www.w3.org/2000/svg">
<path d="M465 614C465 459.5 428 250 331.5 213C308.393 204.14 256.393 178.67 223.5 213C202.203 235.227 204.5 322.5 173.5 326C132.469 326 115.476 249.808 84.5 218.5C58.8558 192.582 17.4865 210.168 0 213V0H1738V213C1710.44 208.518 1691 199.351 1647.5 213C1568.5 249.5 1600.5 381.5 1578.5 388C1518 347 1538.5 501 1520 501C1490.5 522.5 1514 213 1452.5 199.351C1427.5 193.803 1417.06 206.081 1394.5 213C1275.5 249.5 1283 476 1310.5 684.5C1338 893 1206.5 874.5 1092 999C1015.25 1082.45 845.069 1062.38 725.5 999C551 906.5 465 744.638 465 614Z" fill="#B8D8D8"/>
</svg>
