<?xml version="1.0" encoding="UTF-8"?>
<svg xmlns="http://www.w3.org/2000/svg" version="1.1" viewBox="0 0 512 512">
  <defs>
    <style>
      .cls-1 {
        fill: #090c9b;
      }

      .cls-2 {
        fill: #ffe5d4;
      }
    </style>
  </defs>
  <!-- Generator: Adobe Illustrator 28.7.3, SVG Export Plug-In . SVG Version: 1.2.0 Build 164)  -->
  <g>
    <g id="Layer_1">
      <rect class="cls-2" width="512" height="512" rx="76.8" ry="76.8"/>
      <path class="cls-1" d="M357.2,296.9c-17,0-33-7.2-47.4-18.9l3.5-16.6v-.6c3.3-17.6,13.2-47.2,43.9-47.2s41.7,18.7,41.7,41.7-18.7,41.6-41.7,41.6ZM357.2,171.4c-39.2,0-69.5,25.4-81.9,67.3-18.8-28.3-33.1-62.2-41.4-90.8h-42.2v109.7c0,21.7-17.6,39.3-39.3,39.3s-39.3-17.6-39.3-39.3v-109.8h-42.1v109.7c0,44.9,36.5,81.8,81.4,81.8s81.4-36.9,81.4-81.8v-18.4c8.2,17.1,18.2,34.4,30.4,49.6l-25.8,121.4h43.1l18.7-88c16.4,10.5,35.2,17.1,56.8,17.1,46.2,0,83.8-37.8,83.8-84.1.1-46.1-37.4-83.7-83.6-83.7"/>
    </g>
  </g>
</svg>